<svg version="1.1" id="Layer_1" xmlns="http://www.w3.org/2000/svg" xmlns:xlink="http://www.w3.org/1999/xlink" x="0px" y="0px"
	 width="100%" viewBox="0 0 200 200" enable-background="new 0 0 200 200" xml:space="preserve">
<path fill="#6D1E50" opacity="1.000000" stroke="none" 
	d="
M1.000000,161.000000 
	C1.000000,121.312439 1.000000,81.624878 1.368701,41.479118 
	C2.085645,40.485424 2.585236,39.995022 2.760174,39.407894 
	C8.280224,20.881468 20.280552,8.773826 38.685074,2.919666 
	C39.570652,2.637979 40.233456,1.655913 41.000000,1.000000 
	C80.354225,1.000000 119.708458,1.000000 159.571136,1.364461 
	C160.660233,2.032088 161.209381,2.443952 161.826080,2.622647 
	C181.304504,8.266571 193.820282,20.788445 199.277573,40.360470 
	C199.546631,41.325386 200.412201,42.123966 201.000000,43.000000 
	C201.000000,44.388889 201.000000,45.777779 200.717667,47.892368 
	C200.286438,49.427113 200.007797,50.236076 200.007324,51.045208 
	C199.987717,84.129295 199.982330,117.213402 200.037781,150.297409 
	C200.039856,151.532150 200.665146,152.765823 201.000000,154.000000 
	C201.000000,155.388885 201.000000,156.777786 200.637939,158.633331 
	C199.992065,159.684586 199.609100,160.241730 199.438766,160.857697 
	C193.950394,180.702621 181.640182,193.752640 161.522278,199.118927 
	C160.581223,199.369949 159.836273,200.356171 159.000000,201.000000 
	C157.285645,201.000000 155.571289,201.000000 153.121399,200.716125 
	C151.574997,200.289398 150.764236,200.022232 149.953278,200.021667 
	C117.202812,199.998886 84.452309,199.989243 51.701908,200.040619 
	C50.467442,200.042557 49.233948,200.666122 48.000000,201.000000 
	C46.285641,201.000000 44.571285,201.000000 42.432182,200.630081 
	C41.459530,199.917175 40.954540,199.417496 40.357475,199.253922 
	C21.360006,194.049026 9.035962,181.944504 2.955327,163.292007 
	C2.667581,162.409332 1.668049,161.758698 1.000000,161.000000 
M60.530380,74.217453 
	C60.325623,74.453064 60.143368,74.704948 59.458488,75.368660 
	C58.910946,76.524582 58.363403,77.680504 57.255199,79.152565 
	C55.258423,82.541138 57.641964,84.312195 59.964733,86.865829 
	C61.326927,90.141144 62.689125,93.416451 63.123703,96.850960 
	C58.297726,96.967484 53.471745,97.084007 48.323513,97.107735 
	C48.323513,97.107735 47.988304,97.117531 47.579773,97.362137 
	C47.333961,97.589104 47.189804,97.868576 47.135433,98.108589 
	C47.135433,98.108589 47.228115,98.105316 46.728470,98.458138 
	C46.528328,99.015656 46.328182,99.573174 46.037960,100.006195 
	C46.037960,100.006195 46.149109,100.112579 45.472721,100.259590 
	C41.099396,104.690361 41.244324,106.767120 46.027702,109.979034 
	C46.027702,109.979034 46.124260,109.870949 46.087894,110.558701 
	C46.717106,111.377068 47.346313,112.195435 48.385910,113.403885 
	C48.601807,113.921623 48.817703,114.439369 48.729294,115.361176 
	C49.189598,115.874794 49.649906,116.388412 50.043690,116.913345 
	C50.043690,116.913345 50.104168,116.921906 50.061100,117.629005 
	C50.831429,118.654526 51.601761,119.680054 52.367142,120.807510 
	C52.367142,120.807510 52.315372,120.719566 52.401569,121.215523 
	C52.618004,121.464134 52.834442,121.712738 53.002831,121.998779 
	C53.002831,121.998779 53.056122,121.968849 53.034954,122.637268 
	C53.547562,123.263222 54.060169,123.889168 54.642071,124.553566 
	C54.642071,124.553566 54.641090,124.632805 54.461094,125.380692 
	C55.808117,127.367165 57.155140,129.353638 58.671764,131.447571 
	C58.671764,131.447571 58.654667,131.647614 58.489868,132.267090 
	C59.004597,132.838226 59.519325,133.409348 59.996452,133.995972 
	C59.996452,133.995972 60.025299,133.965942 60.005581,134.702667 
	C60.741268,135.747253 61.476955,136.791840 62.082043,138.001434 
	C62.082043,138.001434 62.189812,137.821167 62.104527,138.594894 
	C63.115189,140.027725 64.125847,141.460556 65.081825,143.007721 
	C65.081825,143.007721 65.116287,142.888657 65.146561,143.499725 
	C65.525986,143.947998 65.905411,144.396271 66.140877,144.882339 
	C66.140877,144.882339 66.260399,144.793640 66.175987,145.491852 
	C66.802940,146.312057 67.429893,147.132278 68.003670,147.999222 
	C68.003670,147.999222 68.053101,147.953491 68.100273,148.542633 
	C68.441048,149.006180 68.781822,149.469711 69.027809,149.916412 
	C69.027809,149.916412 69.127602,149.912674 69.089973,150.586884 
	C69.729523,151.306717 70.369080,152.026550 71.246201,152.746460 
	C71.246201,152.746460 71.458466,152.639771 71.773323,152.812744 
	C71.773323,152.812744 72.032265,153.061768 72.720039,153.504486 
	C73.530182,153.665405 74.340034,153.964996 75.150513,153.966690 
	C90.479568,153.998795 105.808784,154.016357 121.137695,153.962234 
	C122.414078,153.957733 123.688576,153.419754 125.651352,152.897675 
	C127.298111,150.359741 128.944870,147.821823 130.725906,145.410446 
	C130.725906,145.410446 130.774734,145.155075 130.774734,145.155075 
	C130.774734,145.155075 130.577011,145.031372 130.549011,144.704498 
	C130.549011,144.704498 130.383560,144.421204 130.254379,143.749588 
	C127.585411,138.771515 124.916451,133.793427 123.270164,128.683929 
	C126.562607,128.673691 129.923965,128.231567 133.133041,128.743744 
	C139.674332,129.787766 142.846512,126.551834 144.681839,120.335686 
	C143.209427,117.846321 141.737015,115.356964 140.071793,112.223167 
	C139.752426,111.922050 139.433075,111.620926 139.287827,111.163704 
	C139.287827,111.163704 139.141571,110.981262 139.034256,110.403107 
	C138.777802,110.116959 138.521362,109.830811 138.197891,109.217987 
	C138.197891,109.217987 137.962769,108.981506 137.856552,108.269707 
	C137.460770,107.147835 137.064972,106.025963 137.349167,104.824272 
	C137.570450,104.768425 137.791733,104.712585 138.485825,104.836533 
	C138.644363,104.779160 138.802902,104.721786 139.884659,104.820557 
	C144.264511,104.771408 148.644379,104.722260 153.507324,104.823524 
	C153.710083,104.582634 153.912827,104.341743 154.013626,104.014465 
	C154.013626,104.014465 154.097168,104.118774 154.587265,103.964081 
	C154.690292,103.651550 154.793304,103.339012 155.350037,102.549820 
	C155.869461,101.592438 156.388885,100.635056 157.179108,99.675598 
	C157.179108,99.675598 157.434891,99.586258 158.070160,99.354851 
	C160.171036,97.362701 160.668381,95.563423 157.168884,93.929932 
	C157.014267,93.704201 156.931442,93.454643 156.940399,92.410431 
	C155.218674,89.668541 153.496933,86.926651 151.912231,83.985268 
	C151.912231,83.985268 151.789429,84.189514 151.858734,83.490868 
	C151.212006,82.678894 150.565292,81.866920 149.996231,81.008148 
	C149.996231,81.008148 149.933273,81.073563 149.953644,80.366173 
	C149.199265,79.312393 148.444870,78.258621 147.937500,77.015175 
	C147.937500,77.015175 147.706482,77.223732 147.806000,76.524719 
	C147.180832,75.704330 146.555649,74.883934 145.991241,74.032593 
	C145.991241,74.032593 145.931107,74.049431 145.889145,73.459152 
	C145.536636,73.005508 145.184113,72.551857 144.949112,72.103188 
	C144.949112,72.103188 144.824844,72.113914 144.888428,71.405029 
	C144.138275,70.361862 143.388138,69.318695 142.665527,68.177925 
	C142.665527,68.177925 142.704987,68.271355 142.603943,67.768990 
	C142.371262,67.527435 142.138596,67.285889 141.986679,67.020691 
	C141.986679,67.020691 141.925995,67.079002 141.868652,66.480476 
	C141.505310,66.023720 141.141953,65.566956 140.897842,65.093178 
	C140.897842,65.093178 140.799927,65.163307 140.871796,64.471970 
	C140.236786,63.658001 139.601761,62.844032 139.000000,62.000763 
	C139.000000,62.000763 138.966812,62.027458 138.910477,61.435879 
	C138.557983,60.977234 138.205490,60.518589 137.932861,60.055080 
	C137.932861,60.055080 137.886612,60.120365 137.852570,59.510635 
	C137.494537,59.042084 137.136520,58.573532 136.863937,58.107822 
	C136.863937,58.107822 136.852524,58.192554 136.711777,57.707451 
	C136.480133,57.469669 136.248474,57.231888 135.604736,56.621357 
	C135.324554,55.943623 135.044357,55.265888 134.627716,53.991474 
	C134.373077,53.679890 134.118439,53.368305 133.949844,53.070835 
	C133.949844,53.070835 133.873383,53.112747 133.908279,52.356224 
	C133.028244,51.303967 132.148224,50.251705 130.432098,49.063431 
	C112.351357,49.047371 94.270622,49.031307 75.482376,49.099014 
	C74.600662,50.359348 73.718941,51.619682 72.516754,53.327621 
	C72.266380,53.814888 72.016006,54.302158 71.298897,55.277794 
	C71.530495,56.856392 71.762093,58.434986 72.244347,60.408909 
	C72.432022,60.659096 72.635307,60.895878 73.047333,61.779995 
	C73.960815,63.257393 74.874298,64.734795 75.920891,66.892372 
	C76.608017,68.811844 77.295151,70.731323 77.062576,72.798363 
	C72.098274,72.872498 67.133972,72.946632 61.652935,73.173973 
	C61.379780,73.403313 61.106628,73.632645 60.530380,74.217453 
z"/>
<path fill="#FDFAFC" opacity="1.000000" stroke="none" 
	d="
M159.468658,201.000000 
	C159.836273,200.356171 160.581223,199.369949 161.522278,199.118927 
	C181.640182,193.752640 193.950394,180.702621 199.438766,160.857697 
	C199.609100,160.241730 199.992065,159.684586 200.637939,159.050003 
	C201.000000,172.926682 201.000000,186.853348 201.000000,201.000000 
	C187.313217,201.000000 173.625275,201.000000 159.468658,201.000000 
z"/>
<path fill="#FCF9FC" opacity="1.000000" stroke="none" 
	d="
M201.000000,42.531342 
	C200.412201,42.123966 199.546631,41.325386 199.277573,40.360470 
	C193.820282,20.788445 181.304504,8.266571 161.826080,2.622647 
	C161.209381,2.443952 160.660233,2.032088 160.039795,1.364461 
	C173.594223,1.000000 187.188446,1.000000 201.000000,1.000000 
	C201.000000,14.686795 201.000000,28.374739 201.000000,42.531342 
z"/>
<path fill="#FCFAFC" opacity="1.000000" stroke="none" 
	d="
M1.000000,161.468658 
	C1.668049,161.758698 2.667581,162.409332 2.955327,163.292007 
	C9.035962,181.944504 21.360006,194.049026 40.357475,199.253922 
	C40.954540,199.417496 41.459530,199.917175 42.003719,200.630081 
	C28.407578,201.000000 14.815155,201.000000 1.000000,201.000000 
	C1.000000,187.979950 1.000000,174.958633 1.000000,161.468658 
z"/>
<path fill="#FCF9FC" opacity="1.000000" stroke="none" 
	d="
M40.531342,1.000000 
	C40.233456,1.655913 39.570652,2.637979 38.685074,2.919666 
	C20.280552,8.773826 8.280224,20.881468 2.760174,39.407894 
	C2.585236,39.995022 2.085645,40.485424 1.368701,41.010460 
	C1.000000,27.740011 1.000000,14.480022 1.000000,1.000000 
	C14.020069,1.000000 27.041376,1.000000 40.531342,1.000000 
z"/>
<path fill="#8E4573" opacity="1.000000" stroke="none" 
	d="
M201.000000,153.531342 
	C200.665146,152.765823 200.039856,151.532150 200.037781,150.297409 
	C199.982330,117.213402 199.987717,84.129295 200.007324,51.045208 
	C200.007797,50.236076 200.286438,49.427113 200.717667,48.309036 
	C201.000000,83.020897 201.000000,118.041786 201.000000,153.531342 
z"/>
<path fill="#8E4573" opacity="1.000000" stroke="none" 
	d="
M48.468658,201.000000 
	C49.233948,200.666122 50.467442,200.042557 51.701908,200.040619 
	C84.452309,199.989243 117.202812,199.998886 149.953278,200.021667 
	C150.764236,200.022232 151.574997,200.289398 152.692932,200.716125 
	C118.312439,201.000000 83.624878,201.000000 48.468658,201.000000 
z"/>
<path fill="#F7F1F0" opacity="1.000000" stroke="none" 
	d="
M144.514008,120.860092 
	C142.846512,126.551834 139.674332,129.787766 133.133041,128.743744 
	C129.923965,128.231567 126.562607,128.673691 122.362335,128.750900 
	C118.660812,128.920197 115.867119,129.022507 112.616005,128.974945 
	C108.015411,128.759735 103.868721,128.779221 99.729988,128.607132 
	C94.836510,128.403656 89.949921,128.034744 85.282616,127.493057 
	C86.833672,125.025154 88.162460,122.801743 89.916359,120.622505 
	C95.973297,120.652214 101.605133,120.637749 107.662010,120.683037 
	C110.783348,120.713310 113.479630,120.683830 116.632225,120.678421 
	C123.056038,120.684204 129.023544,120.665901 135.455078,120.708244 
	C138.784073,120.799286 141.649048,120.829689 144.514008,120.860092 
z"/>
<path fill="#FCF5F8" opacity="1.000000" stroke="none" 
	d="
M130.591644,145.283905 
	C128.944870,147.821823 127.298111,150.359741 124.848236,152.934311 
	C106.707497,153.001221 89.369881,153.031479 72.032265,153.061768 
	C72.032265,153.061768 71.773323,152.812744 71.781387,152.406647 
	C73.016380,149.602676 74.243317,147.204803 75.893906,144.847046 
	C91.242241,144.880295 106.166916,144.873428 121.547516,144.908386 
	C124.796806,144.773880 127.590187,144.597549 130.383560,144.421204 
	C130.383560,144.421204 130.549011,144.704498 130.494904,144.933105 
	C130.440781,145.161697 130.591644,145.283905 130.591644,145.283905 
z"/>
<path fill="#F8C855" opacity="1.000000" stroke="none" 
	d="
M75.470245,144.806931 
	C74.243317,147.204803 73.016380,149.602676 71.623955,152.320160 
	C71.458466,152.639771 71.246201,152.746460 71.055061,152.471893 
	C70.285149,151.435776 69.706375,150.674225 69.127602,149.912674 
	C69.127602,149.912674 69.027809,149.916412 69.057190,149.626190 
	C68.742081,148.875137 68.397591,148.414322 68.053101,147.953491 
	C68.053101,147.953491 68.003670,147.999222 67.986633,147.666916 
	C67.399864,146.487625 66.830132,145.640625 66.260399,144.793640 
	C66.260399,144.793640 66.140877,144.882339 66.165146,144.569733 
	C65.831703,143.800980 65.473999,143.344818 65.116287,142.888657 
	C65.116287,142.888657 65.081825,143.007721 65.062286,142.618927 
	C64.091766,140.760468 63.140789,139.290817 62.189812,137.821167 
	C62.189812,137.821167 62.082043,138.001434 62.095284,137.597702 
	C61.414116,136.117966 60.719707,135.041946 60.025299,133.965942 
	C60.025299,133.965942 59.996452,133.995972 59.987118,133.705887 
	C59.536743,132.826401 59.095703,132.237015 58.654667,131.647614 
	C58.654667,131.647614 58.671764,131.447571 58.516533,131.076538 
	C57.121235,128.681259 55.881161,126.657036 54.641090,124.632805 
	C54.641090,124.632805 54.642071,124.553566 54.549900,124.233917 
	C53.990528,123.265800 53.523327,122.617325 53.056122,121.968849 
	C53.056122,121.968849 53.002831,121.998779 53.013630,121.718872 
	C52.788078,121.199158 52.551727,120.959358 52.315376,120.719566 
	C52.315372,120.719566 52.367142,120.807510 52.312996,120.437950 
	C51.540623,119.019562 50.822395,117.970734 50.104168,116.921906 
	C50.104168,116.921906 50.043690,116.913345 50.057961,116.615517 
	C49.726021,115.864159 49.379810,115.410637 49.033600,114.957108 
	C48.817703,114.439369 48.601807,113.921623 48.140999,112.897835 
	C47.305481,111.551506 46.714870,110.711227 46.124260,109.870949 
	C46.124260,109.870949 46.027702,109.979034 46.023651,109.586075 
	C43.153481,106.124786 44.623779,103.118286 46.149109,100.112579 
	C46.149109,100.112579 46.037960,100.006195 46.322739,99.887451 
	C46.814381,99.214241 47.021248,98.659782 47.228115,98.105316 
	C47.228115,98.105316 47.135433,98.108589 47.357719,98.042572 
	C47.821159,97.740097 47.957256,97.453758 47.988304,97.117531 
	C47.988304,97.117531 48.323513,97.107735 48.578407,97.496201 
	C50.328957,100.262024 51.824612,102.639397 53.360409,105.352036 
	C60.757118,118.727180 68.113686,131.767059 75.470245,144.806931 
z"/>
<path fill="#FEFDFC" opacity="1.000000" stroke="none" 
	d="
M156.908310,99.677673 
	C156.388885,100.635056 155.869461,101.592438 154.935577,102.926361 
	C154.286423,103.526314 154.145096,103.798271 154.097168,104.118774 
	C154.097168,104.118774 154.013626,104.014465 153.854660,104.090736 
	C153.419922,104.266777 153.196106,104.435478 153.024231,104.673111 
	C148.644379,104.722260 144.264511,104.771408 139.326920,104.633606 
	C138.464249,104.318558 138.212189,104.388588 138.013016,104.656754 
	C137.791733,104.712585 137.570450,104.768425 136.610657,104.811752 
	C134.241119,104.727585 132.610092,104.655922 130.877197,104.336319 
	C129.841461,104.268082 128.907593,104.447800 127.709320,104.715729 
	C127.273438,104.875511 127.101959,104.947083 126.493118,104.946548 
	C123.682892,104.804100 121.310005,104.733765 118.777634,104.516174 
	C118.099319,104.467018 117.580505,104.565102 116.623512,104.737152 
	C113.555893,104.899391 110.926460,104.987679 107.845001,105.026733 
	C105.605728,104.840630 103.818474,104.703743 102.014038,104.282593 
	C101.654572,103.344208 101.312271,102.690079 101.002953,101.740257 
	C101.347137,100.951164 101.658340,100.457764 102.274139,99.901398 
	C103.386864,98.921051 104.194992,98.003662 105.399109,97.002426 
	C106.868256,96.973091 107.941399,97.027618 109.112183,97.198135 
	C109.209808,97.314133 109.641602,97.357735 109.641602,97.357735 
	C109.641602,97.357735 109.975975,97.077499 110.436028,96.991135 
	C114.380875,96.884537 117.865662,96.864304 121.769623,96.889488 
	C125.095917,96.791924 128.003052,96.648941 130.992188,96.579086 
	C131.074219,96.652214 131.042892,96.869743 131.286591,97.110252 
	C133.013641,97.262093 134.496964,97.173424 136.434723,96.996445 
	C140.585602,96.973175 144.282089,97.038216 148.092682,97.211533 
	C148.558304,97.428024 148.801407,97.309769 148.876373,96.905304 
	C148.816605,96.845558 148.937622,96.727577 149.379150,96.782623 
	C151.896500,96.913841 153.972351,96.990013 156.153305,97.320763 
	C156.475052,98.276115 156.691681,98.976898 156.908310,99.677673 
z"/>
<path fill="#FBF3F5" opacity="1.000000" stroke="none" 
	d="
M76.189880,49.015247 
	C94.270622,49.031307 112.351357,49.047371 130.838715,49.353619 
	C131.324219,49.923775 131.427368,50.194500 131.230347,50.572769 
	C129.474136,52.776901 128.042328,54.864262 126.176529,56.955238 
	C110.888145,56.968910 96.033760,56.978958 80.941017,56.742268 
	C79.128403,54.254868 77.554146,52.014206 76.040268,49.586151 
	C76.100639,49.398758 76.189880,49.015247 76.189880,49.015247 
z"/>
<path fill="#F8C955" opacity="1.000000" stroke="none" 
	d="
M126.610519,56.951614 
	C128.042328,54.864262 129.474136,52.776901 131.482269,50.837814 
	C132.663513,51.694969 133.268448,52.403858 133.873383,53.112747 
	C133.873383,53.112747 133.949844,53.070835 133.951736,53.372265 
	C134.223816,53.978516 134.493988,54.283337 134.764175,54.588154 
	C135.044357,55.265888 135.324554,55.943623 135.851562,57.066231 
	C136.349777,57.738258 136.601151,57.965408 136.852524,58.192554 
	C136.852524,58.192554 136.863937,58.107822 136.855377,58.405914 
	C137.193405,59.176125 137.540009,59.648243 137.886612,60.120365 
	C137.886612,60.120365 137.932861,60.055080 137.924942,60.353149 
	C138.266953,61.109962 138.616882,61.568710 138.966812,62.027458 
	C138.966812,62.027458 139.000000,62.000763 139.021271,62.325058 
	C139.628326,63.487335 140.214127,64.325317 140.799927,65.163307 
	C140.799927,65.163307 140.897842,65.093178 140.871719,65.399925 
	C141.205734,66.164116 141.565857,66.621559 141.925995,67.079002 
	C141.925995,67.079002 141.986679,67.020691 141.980789,67.293243 
	C142.218262,67.800980 142.461624,68.036171 142.704987,68.271355 
	C142.704987,68.271355 142.665527,68.177925 142.693054,68.549629 
	C143.421997,69.985527 144.123413,71.049721 144.824844,72.113914 
	C144.824844,72.113914 144.949112,72.103188 144.914383,72.396049 
	C145.230133,73.142418 145.580612,73.595924 145.931107,74.049431 
	C145.931107,74.049431 145.991241,74.032593 145.987885,74.359238 
	C146.558502,75.531830 147.132492,76.377785 147.706482,77.223732 
	C147.706482,77.223732 147.937500,77.015175 147.875458,77.431717 
	C148.520035,78.923370 149.226654,79.998466 149.933273,81.073563 
	C149.933273,81.073563 149.996231,81.008148 150.001251,81.343407 
	C150.600662,82.515617 151.195038,83.352570 151.789429,84.189514 
	C151.789429,84.189514 151.912231,83.985268 151.897415,84.433136 
	C153.561874,87.647751 155.241150,90.414505 156.920410,93.181259 
	C156.931442,93.454643 157.014267,93.704201 157.389069,94.420135 
	C157.673569,95.378326 157.737900,95.846321 157.566956,96.368698 
	C156.903854,96.637451 156.476013,96.851822 156.048187,97.066185 
	C153.972351,96.990013 151.896500,96.913841 149.306183,96.453140 
	C141.397964,83.029617 134.004242,69.990616 126.610519,56.951614 
z"/>
<path fill="#F6C859" opacity="1.000000" stroke="none" 
	d="
M130.318970,144.085403 
	C127.590187,144.597549 124.796806,144.773880 121.502487,144.555573 
	C118.358833,139.148895 115.716133,134.136871 113.073425,129.124832 
	C115.867119,129.022507 118.660812,128.920197 121.850998,128.816620 
	C124.916451,133.793427 127.585411,138.771515 130.318970,144.085403 
z"/>
<path fill="#F9F2EF" opacity="1.000000" stroke="none" 
	d="
M53.320267,105.016762 
	C51.824612,102.639397 50.328957,100.262024 48.739532,97.542603 
	C53.471745,97.084007 58.297726,96.967484 63.952274,96.882614 
	C65.287903,96.882950 65.794968,96.851624 66.524895,97.054214 
	C68.100494,99.794418 69.453217,102.300697 70.353348,104.862808 
	C64.373917,104.951355 58.847092,104.984062 53.320267,105.016762 
z"/>
<path fill="#FAF4F0" opacity="1.000000" stroke="none" 
	d="
M62.169670,73.020767 
	C67.133972,72.946632 72.098274,72.872498 77.850311,72.826050 
	C79.093529,72.830299 79.549026,72.806854 80.268906,73.006012 
	C81.763725,75.720421 82.994148,78.212204 83.733429,80.748703 
	C77.902611,80.840042 72.562935,80.886665 67.018677,80.661964 
	C65.231163,78.173584 63.648220,75.956520 62.104523,73.561691 
	C62.143761,73.383926 62.169670,73.020767 62.169670,73.020767 
z"/>
<path fill="#FED247" opacity="1.000000" stroke="none" 
	d="
M137.962769,108.981506 
	C137.962769,108.981506 138.197891,109.217987 138.148804,109.738678 
	C138.070984,110.501900 138.042236,110.744438 137.905075,111.272888 
	C137.813019,112.182251 137.641891,112.892334 137.882141,113.412346 
	C138.517151,114.786835 139.330414,116.078972 140.072739,117.403885 
	C138.436569,117.932785 136.800400,118.461678 135.042191,118.848587 
	C134.920151,118.706612 134.868317,118.335793 134.845642,118.001434 
	C134.423477,117.161575 134.023972,116.656059 133.679581,116.163383 
	C133.734680,116.176216 133.693970,116.281784 133.724182,115.942001 
	C133.115891,114.775246 132.477371,113.948273 131.827026,113.112015 
	C131.815201,113.102722 131.782806,113.099915 131.827240,112.717499 
	C131.496872,110.472366 131.122101,108.609634 130.432251,105.180969 
	C133.555695,106.757324 135.759232,107.869415 137.962769,108.981506 
z"/>
<path fill="#602549" opacity="1.000000" stroke="none" 
	d="
M72.376152,153.283112 
	C89.369881,153.031479 106.707497,153.001221 124.504532,153.050293 
	C123.688576,153.419754 122.414078,153.957733 121.137695,153.962234 
	C105.808784,154.016357 90.479568,153.998795 75.150513,153.966690 
	C74.340034,153.964996 73.530182,153.665405 72.376152,153.283112 
z"/>
<path fill="#F4C766" opacity="1.000000" stroke="none" 
	d="
M135.164230,118.990570 
	C136.800400,118.461678 138.436569,117.932785 140.072739,117.403885 
	C139.330414,116.078972 138.517151,114.786835 137.882141,113.412346 
	C137.641891,112.892334 137.813019,112.182251 138.187012,111.274231 
	C138.765427,110.986847 138.953506,110.984055 139.141571,110.981262 
	C139.141571,110.981262 139.287827,111.163704 139.330597,111.545288 
	C139.670441,112.240448 139.967514,112.554024 140.264603,112.867599 
	C141.737015,115.356964 143.209427,117.846321 144.597931,120.597885 
	C141.649048,120.829689 138.784073,120.799286 135.441452,120.429832 
	C135.030609,119.724045 135.097427,119.357300 135.164230,118.990570 
z"/>
<path fill="#EEBC66" opacity="1.000000" stroke="none" 
	d="
M137.909668,108.625610 
	C135.759232,107.869415 133.555695,106.757324 130.432251,105.180969 
	C131.122101,108.609634 131.496872,110.472366 131.564819,112.522339 
	C129.815491,110.145950 128.372971,107.582306 126.930466,105.018661 
	C127.101959,104.947083 127.273438,104.875511 128.078140,104.824539 
	C129.467270,104.758171 130.223175,104.671219 130.979080,104.584267 
	C132.610092,104.655922 134.241119,104.727585 136.270660,104.851669 
	C137.064972,106.025963 137.460770,107.147835 137.909668,108.625610 
z"/>
<path fill="#803D46" opacity="1.000000" stroke="none" 
	d="
M45.810913,100.186081 
	C44.623779,103.118286 43.153481,106.124786 46.082329,109.543541 
	C41.244324,106.767120 41.099396,104.690361 45.810913,100.186081 
z"/>
<path fill="#803D46" opacity="1.000000" stroke="none" 
	d="
M66.302025,96.820297 
	C65.794968,96.851624 65.287903,96.882950 64.416084,96.803024 
	C62.689125,93.416451 61.326927,90.141144 60.018906,86.407074 
	C60.073082,85.948326 60.307415,85.746033 60.546486,85.984009 
	C62.624378,89.754753 64.463203,93.287521 66.302025,96.820297 
z"/>
<path fill="#803D46" opacity="1.000000" stroke="none" 
	d="
M156.930405,92.795837 
	C155.241150,90.414505 153.561874,87.647751 151.828903,84.532883 
	C153.496933,86.926651 155.218674,89.668541 156.930405,92.795837 
z"/>
<path fill="#803D46" opacity="1.000000" stroke="none" 
	d="
M59.956444,86.050079 
	C57.641964,84.312195 55.258423,82.541138 57.641300,79.084290 
	C58.027401,79.016014 58.238747,79.195816 58.198204,79.549286 
	C58.874245,81.850517 59.590828,83.798279 60.307415,85.746033 
	C60.307415,85.746033 60.073082,85.948326 59.956444,86.050079 
z"/>
<path fill="#803D46" opacity="1.000000" stroke="none" 
	d="
M54.551090,125.006744 
	C55.881161,126.657036 57.121235,128.681259 58.431736,131.022797 
	C57.155140,129.353638 55.808117,127.367165 54.551090,125.006744 
z"/>
<path fill="#803D46" opacity="1.000000" stroke="none" 
	d="
M80.004517,72.783401 
	C79.549026,72.806854 79.093529,72.830299 78.310158,72.752274 
	C77.295151,70.731323 76.608017,68.811844 75.958916,66.456360 
	C75.996941,66.020340 76.207985,65.830566 76.460449,66.045441 
	C77.810112,68.434685 78.907310,70.609039 80.004517,72.783401 
z"/>
<path fill="#803D46" opacity="1.000000" stroke="none" 
	d="
M62.147171,138.208038 
	C63.140789,139.290817 64.091766,140.760468 65.089630,142.561752 
	C64.125847,141.460556 63.115189,140.027725 62.147171,138.208038 
z"/>
<path fill="#803D46" opacity="1.000000" stroke="none" 
	d="
M71.993690,60.013584 
	C71.762093,58.434986 71.530495,56.856392 71.631714,55.119526 
	C71.964531,54.961258 72.163139,55.133427 72.107048,55.500034 
	C72.255432,57.055721 72.459915,58.244797 72.496384,59.578426 
	C72.328384,59.722977 71.993690,60.013584 71.993690,60.013584 
z"/>
<path fill="#803D46" opacity="1.000000" stroke="none" 
	d="
M157.802231,96.314316 
	C157.737900,95.846321 157.673569,95.378326 157.530334,94.560616 
	C160.668381,95.563423 160.171036,97.362701 157.825012,99.135666 
	C157.653976,98.049095 157.728104,97.181702 157.802231,96.314316 
z"/>
<path fill="#803D46" opacity="1.000000" stroke="none" 
	d="
M75.892365,66.116264 
	C74.874298,64.734795 73.960815,63.257393 73.058029,61.356514 
	C73.068726,60.933037 73.281738,60.745079 73.529709,60.960197 
	C74.587776,62.727070 75.397881,64.278816 76.207985,65.830566 
	C76.207985,65.830566 75.996941,66.020340 75.892365,66.116264 
z"/>
<path fill="#803D46" opacity="1.000000" stroke="none" 
	d="
M75.836128,49.057129 
	C76.189880,49.015247 76.100639,49.398758 75.775986,49.774422 
	C74.725693,51.175034 74.000046,52.199978 73.165421,53.138294 
	C73.056442,53.051662 72.837227,52.880016 72.837227,52.880016 
	C73.718941,51.619682 74.600662,50.359348 75.836128,49.057129 
z"/>
<path fill="#803D46" opacity="1.000000" stroke="none" 
	d="
M50.082634,117.275452 
	C50.822395,117.970734 51.540623,119.019562 52.315468,120.386986 
	C51.601761,119.680054 50.831429,118.654526 50.082634,117.275452 
z"/>
<path fill="#803D46" opacity="1.000000" stroke="none" 
	d="
M144.856628,71.759476 
	C144.123413,71.049721 143.421997,69.985527 142.679276,68.598434 
	C143.388138,69.318695 144.138275,70.361862 144.856628,71.759476 
z"/>
<path fill="#803D46" opacity="1.000000" stroke="none" 
	d="
M133.890839,52.734486 
	C133.268448,52.403858 132.663513,51.694969 131.806671,50.721035 
	C131.427368,50.194500 131.324219,49.923775 131.256744,49.421623 
	C132.148224,50.251705 133.028244,51.303967 133.890839,52.734486 
z"/>
<path fill="#803D46" opacity="1.000000" stroke="none" 
	d="
M60.015442,134.334305 
	C60.719707,135.041946 61.414116,136.117966 62.160583,137.515198 
	C61.476955,136.791840 60.741268,135.747253 60.015442,134.334305 
z"/>
<path fill="#803D46" opacity="1.000000" stroke="none" 
	d="
M57.921631,78.926224 
	C58.363403,77.680504 58.910946,76.524582 59.873737,75.301079 
	C60.288986,75.233498 60.596523,75.491310 60.470619,75.781281 
	C59.642727,77.112778 58.940735,78.154297 58.238747,79.195816 
	C58.238747,79.195816 58.027401,79.016014 57.921631,78.926224 
z"/>
<path fill="#803D46" opacity="1.000000" stroke="none" 
	d="
M46.106079,110.214828 
	C46.714870,110.711227 47.305481,111.551506 47.935806,112.702789 
	C47.346313,112.195435 46.717106,111.377068 46.106079,110.214828 
z"/>
<path fill="#803D46" opacity="1.000000" stroke="none" 
	d="
M66.218193,145.142746 
	C66.830132,145.640625 67.399864,146.487625 68.013214,147.643555 
	C67.429893,147.132278 66.802940,146.312057 66.218193,145.142746 
z"/>
<path fill="#803D46" opacity="1.000000" stroke="none" 
	d="
M140.835861,64.817642 
	C140.214127,64.325317 139.628326,63.487335 139.004639,62.339706 
	C139.601761,62.844032 140.236786,63.658001 140.835861,64.817642 
z"/>
<path fill="#803D46" opacity="1.000000" stroke="none" 
	d="
M69.108788,150.249786 
	C69.706375,150.674225 70.285149,151.435776 70.936279,152.471863 
	C70.369080,152.026550 69.729523,151.306717 69.108788,150.249786 
z"/>
<path fill="#F6EAE4" opacity="1.000000" stroke="none" 
	d="
M157.566956,96.368698 
	C157.728104,97.181702 157.653976,98.049095 157.507370,99.251373 
	C157.434891,99.586258 157.179108,99.675598 157.043701,99.676636 
	C156.691681,98.976898 156.475052,98.276115 156.153305,97.320763 
	C156.476013,96.851822 156.903854,96.637451 157.566956,96.368698 
z"/>
<path fill="#803D46" opacity="1.000000" stroke="none" 
	d="
M151.824081,83.840195 
	C151.195038,83.352570 150.600662,82.515617 149.962433,81.366806 
	C150.565292,81.866920 151.212006,82.678894 151.824081,83.840195 
z"/>
<path fill="#803D46" opacity="1.000000" stroke="none" 
	d="
M149.943451,80.719864 
	C149.226654,79.998466 148.520035,78.923370 147.751953,77.526558 
	C148.444870,78.258621 149.199265,79.312393 149.943451,80.719864 
z"/>
<path fill="#803D46" opacity="1.000000" stroke="none" 
	d="
M147.756241,76.874222 
	C147.132492,76.377785 146.558502,75.531830 145.957489,74.374710 
	C146.555649,74.883934 147.180832,75.704330 147.756241,76.874222 
z"/>
<path fill="#803D46" opacity="1.000000" stroke="none" 
	d="
M58.572266,131.957352 
	C59.095703,132.237015 59.536743,132.826401 60.005917,133.698151 
	C59.519325,133.409348 59.004597,132.838226 58.572266,131.957352 
z"/>
<path fill="#803D46" opacity="1.000000" stroke="none" 
	d="
M48.881447,115.159142 
	C49.379810,115.410637 49.726021,115.864159 50.091225,116.609863 
	C49.649906,116.388412 49.189598,115.874794 48.881447,115.159142 
z"/>
<path fill="#803D46" opacity="1.000000" stroke="none" 
	d="
M53.045540,122.303055 
	C53.523327,122.617325 53.990528,123.265800 54.515251,124.214699 
	C54.060169,123.889168 53.547562,123.263222 53.045540,122.303055 
z"/>
<path fill="#803D46" opacity="1.000000" stroke="none" 
	d="
M65.131424,143.194183 
	C65.473999,143.344818 65.831703,143.800980 66.237122,144.550842 
	C65.905411,144.396271 65.525986,143.947998 65.131424,143.194183 
z"/>
<path fill="#803D46" opacity="1.000000" stroke="none" 
	d="
M138.938644,61.731667 
	C138.616882,61.568710 138.266953,61.109962 137.885010,60.355576 
	C138.205490,60.518589 138.557983,60.977234 138.938644,61.731667 
z"/>
<path fill="#803D46" opacity="1.000000" stroke="none" 
	d="
M68.076691,148.248062 
	C68.397591,148.414322 68.742081,148.875137 69.104584,149.634613 
	C68.781822,149.469711 68.441048,149.006180 68.076691,148.248062 
z"/>
<path fill="#803D46" opacity="1.000000" stroke="none" 
	d="
M71.865082,54.875343 
	C72.016006,54.302158 72.266380,53.814888 72.676987,53.103821 
	C72.837227,52.880016 73.056442,53.051662 73.107346,53.417442 
	C72.826546,54.233288 72.494843,54.683357 72.163139,55.133427 
	C72.163139,55.133427 71.964531,54.961258 71.865082,54.875343 
z"/>
<path fill="#803D46" opacity="1.000000" stroke="none" 
	d="
M137.869598,59.815498 
	C137.540009,59.648243 137.193405,59.176125 136.812653,58.404495 
	C137.136520,58.573532 137.494537,59.042084 137.869598,59.815498 
z"/>
<path fill="#803D46" opacity="1.000000" stroke="none" 
	d="
M145.910126,73.754288 
	C145.580612,73.595924 145.230133,73.142418 144.855621,72.393555 
	C145.184113,72.551857 145.536636,73.005508 145.910126,73.754288 
z"/>
<path fill="#803D46" opacity="1.000000" stroke="none" 
	d="
M46.978294,98.281723 
	C47.021248,98.659782 46.814381,99.214241 46.367775,99.949699 
	C46.328182,99.573174 46.528328,99.015656 46.978294,98.281723 
z"/>
<path fill="#803D46" opacity="1.000000" stroke="none" 
	d="
M141.897324,66.779739 
	C141.565857,66.621559 141.205734,66.164116 140.812103,65.408432 
	C141.141953,65.566956 141.505310,66.023720 141.897324,66.779739 
z"/>
<path fill="#F6EAE4" opacity="1.000000" stroke="none" 
	d="
M154.342224,104.041428 
	C154.145096,103.798271 154.286423,103.526314 154.708725,103.164696 
	C154.793304,103.339012 154.690292,103.651550 154.342224,104.041428 
z"/>
<path fill="#803D46" opacity="1.000000" stroke="none" 
	d="
M61.911301,73.097366 
	C62.169670,73.020767 62.143761,73.383926 61.882095,73.671356 
	C61.620430,73.958786 61.184830,74.190201 61.097637,74.107452 
	C61.010445,74.024704 60.833473,73.861977 60.833473,73.861977 
	C61.106628,73.632645 61.379780,73.403313 61.911301,73.097366 
z"/>
<path fill="#803D46" opacity="1.000000" stroke="none" 
	d="
M47.784039,97.239838 
	C47.957256,97.453758 47.821159,97.740097 47.363655,98.088554 
	C47.189804,97.868576 47.333961,97.589104 47.784039,97.239838 
z"/>
<path fill="#803D46" opacity="1.000000" stroke="none" 
	d="
M142.654465,68.020172 
	C142.461624,68.036171 142.218262,67.800980 141.940399,67.305069 
	C142.138596,67.285889 142.371262,67.527435 142.654465,68.020172 
z"/>
<path fill="#F6C859" opacity="1.000000" stroke="none" 
	d="
M130.658783,145.347168 
	C130.591644,145.283905 130.440781,145.161697 130.508896,145.096527 
	C130.577011,145.031372 130.774734,145.155075 130.774734,145.155075 
	C130.774734,145.155075 130.725906,145.410446 130.658783,145.347168 
z"/>
<path fill="#803D46" opacity="1.000000" stroke="none" 
	d="
M134.695953,54.289814 
	C134.493988,54.283337 134.223816,53.978516 133.908722,53.365208 
	C134.118439,53.368305 134.373077,53.679890 134.695953,54.289814 
z"/>
<path fill="#EEBC66" opacity="1.000000" stroke="none" 
	d="
M140.168198,112.545380 
	C139.967514,112.554024 139.670441,112.240448 139.243530,111.623337 
	C139.433075,111.620926 139.752426,111.922050 140.168198,112.545380 
z"/>
<path fill="#F6EAE4" opacity="1.000000" stroke="none" 
	d="
M138.249420,104.746643 
	C138.212189,104.388588 138.464249,104.318558 138.865326,104.555534 
	C138.802902,104.721786 138.644363,104.779160 138.249420,104.746643 
z"/>
<path fill="#F6EAE4" opacity="1.000000" stroke="none" 
	d="
M153.265778,104.748322 
	C153.196106,104.435478 153.419922,104.266777 153.905640,104.133926 
	C153.912827,104.341743 153.710083,104.582634 153.265778,104.748322 
z"/>
<path fill="#803D46" opacity="1.000000" stroke="none" 
	d="
M60.136299,75.103310 
	C60.143368,74.704948 60.325623,74.453064 60.681927,74.039719 
	C60.833473,73.861977 61.010445,74.024704 61.058773,74.348083 
	C61.012566,74.991867 60.842373,75.265152 60.596523,75.491310 
	C60.596523,75.491310 60.288986,75.233498 60.136299,75.103310 
z"/>
<path fill="#803D46" opacity="1.000000" stroke="none" 
	d="
M72.961456,61.026146 
	C72.635307,60.895878 72.432022,60.659096 72.119019,60.211246 
	C71.993690,60.013584 72.328384,59.722977 72.648582,59.771370 
	C73.142395,60.104763 73.246712,60.413204 73.281738,60.745079 
	C73.281738,60.745079 73.068726,60.933037 72.961456,61.026146 
z"/>
<path fill="#803D46" opacity="1.000000" stroke="none" 
	d="
M136.782150,57.950005 
	C136.601151,57.965408 136.349777,57.738258 136.057617,57.252609 
	C136.248474,57.231888 136.480133,57.469669 136.782150,57.950005 
z"/>
<path fill="#803D46" opacity="1.000000" stroke="none" 
	d="
M52.358475,120.967545 
	C52.551727,120.959358 52.788078,121.199158 53.037655,121.700150 
	C52.834442,121.712738 52.618004,121.464134 52.358475,120.967545 
z"/>
<path fill="#EEBC66" opacity="1.000000" stroke="none" 
	d="
M139.087921,110.692184 
	C138.953506,110.984055 138.765427,110.986847 138.295441,110.988312 
	C138.042236,110.744438 138.070984,110.501900 138.182312,109.902008 
	C138.521362,109.830811 138.777802,110.116959 139.087921,110.692184 
z"/>
<path fill="#70234E" opacity="1.000000" stroke="none" 
	d="
M53.360409,105.352036 
	C58.847092,104.984062 64.373917,104.951355 70.636642,105.086472 
	C75.935135,112.748718 80.497742,120.243134 85.060341,127.737549 
	C89.949921,128.034744 94.836510,128.403656 99.729988,128.607132 
	C103.868721,128.779221 108.015411,128.759735 112.616005,128.974945 
	C115.716133,134.136871 118.358833,139.148895 121.046562,144.513748 
	C106.166916,144.873428 91.242241,144.880295 75.893906,144.847046 
	C68.113686,131.767059 60.757118,118.727180 53.360409,105.352036 
z"/>
<path fill="#F8CB56" opacity="1.000000" stroke="none" 
	d="
M85.282616,127.493057 
	C80.497742,120.243134 75.935135,112.748718 71.089241,105.030640 
	C69.453217,102.300697 68.100494,99.794418 66.524895,97.054214 
	C64.463203,93.287521 62.624378,89.754753 60.546486,85.984009 
	C59.590828,83.798279 58.874245,81.850517 58.198204,79.549286 
	C58.940735,78.154297 59.642727,77.112778 60.470619,75.781281 
	C60.842373,75.265152 61.012566,74.991867 61.145966,74.430832 
	C61.184830,74.190201 61.620430,73.958786 61.842857,73.849121 
	C63.648220,75.956520 65.231163,78.173584 67.058731,81.005447 
	C70.498695,86.769508 73.694023,91.918755 76.901932,97.429764 
	C78.355751,100.191338 79.796989,102.591164 81.249916,105.336823 
	C84.004822,110.647873 86.748032,115.613098 89.491241,120.578323 
	C88.162460,122.801743 86.833672,125.025154 85.282616,127.493057 
z"/>
<path fill="#72284F" opacity="1.000000" stroke="none" 
	d="
M126.493118,104.946548 
	C128.372971,107.582306 129.815491,110.145950 131.520401,112.904755 
	C131.782806,113.099915 131.815201,113.102722 131.878174,113.420105 
	C132.525436,114.585587 133.109711,115.433685 133.693970,116.281784 
	C133.693970,116.281784 133.734680,116.176216 133.733582,116.486847 
	C134.111084,117.310257 134.489700,117.823021 134.868317,118.335793 
	C134.868317,118.335793 134.920151,118.706612 135.042191,118.848587 
	C135.097427,119.357300 135.030609,119.724045 134.977417,120.369194 
	C129.023544,120.665901 123.056038,120.684204 116.665199,120.322357 
	C113.593582,114.986794 110.945305,110.031372 108.297020,105.075958 
	C110.926460,104.987679 113.555893,104.899391 116.930565,104.835899 
	C118.096237,104.794937 118.516685,104.729179 118.937126,104.663422 
	C121.310005,104.733765 123.682892,104.804100 126.493118,104.946548 
z"/>
<path fill="#73294F" opacity="1.000000" stroke="none" 
	d="
M89.916351,120.622505 
	C86.748032,115.613098 84.004822,110.647873 81.698044,105.320999 
	C87.724968,104.960426 93.315460,104.961517 99.050499,105.282700 
	C101.875687,110.609612 104.556320,115.616447 107.236954,120.623276 
	C101.605133,120.637749 95.973297,120.652214 89.916351,120.622505 
z"/>
<path fill="#F7C959" opacity="1.000000" stroke="none" 
	d="
M107.662003,120.683037 
	C104.556320,115.616447 101.875687,110.609612 99.448517,105.255447 
	C100.478394,104.794365 101.254799,104.680611 102.031212,104.566856 
	C103.818474,104.703743 105.605728,104.840630 107.845001,105.026733 
	C110.945305,110.031372 113.593582,114.986794 116.208893,120.298279 
	C113.479630,120.683830 110.783348,120.713310 107.662003,120.683037 
z"/>
<path fill="#71244F" opacity="1.000000" stroke="none" 
	d="
M126.176529,56.955238 
	C134.004242,69.990616 141.397964,83.029617 148.864655,96.398102 
	C148.937622,96.727577 148.816605,96.845558 148.626709,96.868561 
	C148.284058,96.962120 148.131317,97.032692 147.978561,97.103256 
	C144.282089,97.038216 140.585602,96.973175 136.037079,96.883575 
	C133.804321,96.862602 132.423599,96.866173 131.042892,96.869743 
	C131.042892,96.869743 131.074219,96.652214 130.908524,96.282326 
	C126.211693,88.346672 121.680550,80.780914 116.679733,73.084366 
	C107.554039,72.960197 98.898018,72.966797 89.995605,72.725845 
	C86.892593,67.315193 84.035980,62.152100 81.179367,56.989006 
	C96.033760,56.978958 110.888145,56.968910 126.176529,56.955238 
z"/>
<path fill="#F8CC56" opacity="1.000000" stroke="none" 
	d="
M80.941017,56.742268 
	C84.035980,62.152100 86.892593,67.315193 90.024323,73.062683 
	C91.853813,76.044250 93.408180,78.441422 94.928909,81.208961 
	C97.694641,86.655151 100.494019,91.730972 103.129028,97.111221 
	C102.632965,98.265205 102.301247,99.114784 101.969528,99.964363 
	C101.658340,100.457764 101.347137,100.951164 100.706543,101.886154 
	C99.222290,101.897339 97.823776,101.738701 96.969666,100.972893 
	C95.686142,99.822052 94.783974,98.245880 93.661926,96.521561 
	C90.477654,91.029716 87.351112,85.866852 84.224571,80.703995 
	C82.994148,78.212204 81.763725,75.720421 80.268906,73.006012 
	C78.907310,70.609039 77.810112,68.434685 76.460449,66.045441 
	C75.397881,64.278816 74.587776,62.727070 73.529709,60.960197 
	C73.246712,60.413204 73.142395,60.104763 72.816589,59.626820 
	C72.459915,58.244797 72.255432,57.055721 72.107048,55.500034 
	C72.494843,54.683357 72.826546,54.233288 73.216324,53.504074 
	C74.000046,52.199978 74.725693,51.175034 75.715614,49.961815 
	C77.554146,52.014206 79.128403,54.254868 80.941017,56.742268 
z"/>
<path fill="#70264E" opacity="1.000000" stroke="none" 
	d="
M103.293388,96.806801 
	C100.494019,91.730972 97.694641,86.655151 95.399780,81.196793 
	C101.547745,80.810989 107.191193,80.807732 113.012253,81.120514 
	C115.910057,86.572388 118.630257,91.708229 121.350456,96.844070 
	C117.865662,96.864304 114.380875,96.884537 110.195412,96.901337 
	C109.334679,96.959312 109.174614,97.020729 109.014549,97.082138 
	C107.941399,97.027618 106.868256,96.973091 105.128807,96.886993 
	C104.072800,96.839203 103.683098,96.823006 103.293388,96.806801 
z"/>
<path fill="#F6C859" opacity="1.000000" stroke="none" 
	d="
M121.769623,96.889488 
	C118.630257,91.708229 115.910057,86.572388 113.136223,80.806381 
	C114.438202,77.855865 115.793808,75.535507 117.149414,73.215149 
	C121.680550,80.780914 126.211693,88.346672 130.826508,96.209198 
	C128.003052,96.648941 125.095917,96.791924 121.769623,96.889488 
z"/>
<path fill="#F6EAE4" opacity="1.000000" stroke="none" 
	d="
M93.719658,96.850548 
	C94.783974,98.245880 95.686142,99.822052 96.969666,100.972893 
	C97.823776,101.738701 99.222290,101.897339 100.673553,102.181839 
	C101.312271,102.690079 101.654572,103.344208 102.014038,104.282593 
	C101.254799,104.680611 100.478394,104.794365 99.303970,104.935364 
	C93.315460,104.961517 87.724968,104.960426 81.686356,104.975159 
	C79.796989,102.591164 78.355751,100.191338 77.376877,97.362473 
	C83.132721,96.905807 88.426186,96.878181 93.719658,96.850548 
z"/>
<path fill="#F6EAE4" opacity="1.000000" stroke="none" 
	d="
M103.129028,97.111221 
	C103.683098,96.823006 104.072800,96.839203 104.732819,96.970840 
	C104.194992,98.003662 103.386864,98.921051 102.274132,99.901398 
	C102.301247,99.114784 102.632965,98.265205 103.129028,97.111221 
z"/>
<path fill="#F6EAE4" opacity="1.000000" stroke="none" 
	d="
M130.877197,104.336319 
	C130.223175,104.671219 129.467270,104.758171 128.342545,104.736320 
	C128.907593,104.447800 129.841461,104.268082 130.877197,104.336319 
z"/>
<path fill="#F6EAE4" opacity="1.000000" stroke="none" 
	d="
M131.286591,97.110252 
	C132.423599,96.866173 133.804321,96.862602 135.582672,96.971893 
	C134.496964,97.173424 133.013641,97.262093 131.286591,97.110252 
z"/>
<path fill="#F6EAE4" opacity="1.000000" stroke="none" 
	d="
M118.777634,104.516174 
	C118.516685,104.729179 118.096237,104.794937 117.368744,104.761932 
	C117.580505,104.565102 118.099319,104.467018 118.777634,104.516174 
z"/>
<path fill="#F6EAE4" opacity="1.000000" stroke="none" 
	d="
M109.112183,97.198135 
	C109.174614,97.020729 109.334679,96.959312 109.735359,96.987701 
	C109.975975,97.077499 109.641602,97.357735 109.641602,97.357735 
	C109.641602,97.357735 109.209808,97.314133 109.112183,97.198135 
z"/>
<path fill="#F6EAE4" opacity="1.000000" stroke="none" 
	d="
M148.092682,97.211533 
	C148.131317,97.032692 148.284058,96.962120 148.686462,96.928299 
	C148.801407,97.309769 148.558304,97.428024 148.092682,97.211533 
z"/>
<path fill="#70254C" opacity="1.000000" stroke="none" 
	d="
M93.661926,96.521561 
	C88.426186,96.878181 83.132721,96.905807 77.364304,97.000717 
	C73.694023,91.918755 70.498695,86.769508 67.263313,81.276772 
	C72.562935,80.886665 77.902611,80.840042 83.733429,80.748703 
	C87.351112,85.866852 90.477654,91.029716 93.661926,96.521561 
z"/>
<path fill="#F4C766" opacity="1.000000" stroke="none" 
	d="
M133.724182,115.942001 
	C133.109711,115.433685 132.525436,114.585587 131.890015,113.429398 
	C132.477371,113.948273 133.115891,114.775246 133.724182,115.942001 
z"/>
<path fill="#F4C766" opacity="1.000000" stroke="none" 
	d="
M134.845642,118.001434 
	C134.489700,117.823021 134.111084,117.310257 133.678467,116.474014 
	C134.023972,116.656059 134.423477,117.161575 134.845642,118.001434 
z"/>
<path fill="#FBF6F4" opacity="1.000000" stroke="none" 
	d="
M116.679733,73.084366 
	C115.793808,75.535507 114.438202,77.855865 112.958618,80.490349 
	C107.191193,80.807732 101.547745,80.810989 95.433426,80.826416 
	C93.408180,78.441422 91.853813,76.044250 90.270721,73.310242 
	C98.898018,72.966797 107.554039,72.960197 116.679733,73.084366 
z"/>
</svg>